# 3ds Max Wavefront OBJ Exporter v0.97b - (c)2007 guruware
# File Created: 19.01.2021 19:41:19

mtllib calle.mtl

#
# object Box001
#

v  -125.5978 0.0000 -1485.5809
v  -125.5978 0.0000 1458.7372
v  84.2437 0.0000 -1485.5809
v  84.2437 0.0000 1458.7372
v  84.2437 -2.9020 1458.7372
v  -125.5978 -2.9020 1458.7372
v  84.2437 -2.9020 -1485.5809
v  -125.5978 -2.9020 -1485.5809
# 8 vertices

vn 0.0000 1.0000 -0.0000
vn 0.0000 -1.0000 -0.0000
vn 0.0000 0.0000 1.0000
vn 1.0000 0.0000 -0.0000
vn 0.0000 0.0000 -1.0000
vn -1.0000 0.0000 -0.0000
# 6 vertex normals

vt -0.1836 12.0627 1.0000
vt -0.1836 -11.0627 1.0000
vt 1.1836 12.0627 1.0000
vt 1.1836 -11.0627 1.0000
vt -0.1836 -11.0627 0.0000
vt 1.1836 -11.0627 0.0000
vt -0.1836 12.0627 0.0000
vt 1.1836 12.0627 0.0000
vt 1.1836 1.0000 -11.0627
vt -0.1836 1.0000 -11.0627
vt 1.1836 0.0000 -11.0627
vt -0.1836 0.0000 -11.0627
vt 12.0627 1.0000 1.1836
vt -11.0627 1.0000 1.1836
vt 12.0627 0.0000 1.1836
vt -11.0627 0.0000 1.1836
vt 1.1836 1.0000 12.0627
vt -0.1836 1.0000 12.0627
vt 1.1836 0.0000 12.0627
vt -0.1836 0.0000 12.0627
vt 12.0627 1.0000 -0.1836
vt -11.0627 1.0000 -0.1836
vt 12.0627 0.0000 -0.1836
vt -11.0627 0.0000 -0.1836
# 24 texture coords

o Box001
g Box001
usemtl Material__25
s 2
f 1/1/1 2/2/1 3/3/1 
f 4/4/1 3/3/1 2/2/1 
s 4
f 5/5/2 6/6/2 7/7/2 
f 8/8/2 7/7/2 6/6/2 
s 8
f 4/9/3 2/10/3 5/11/3 
f 6/12/3 5/11/3 2/10/3 
s 16
f 3/13/4 4/14/4 7/15/4 
f 5/16/4 7/15/4 4/14/4 
s 32
f 1/17/5 3/18/5 8/19/5 
f 7/20/5 8/19/5 3/18/5 
s 64
f 2/21/6 1/22/6 6/23/6 
f 8/24/6 6/23/6 1/22/6 
# 12 faces

#
# object Box002
#

v  -1500.7568 3.0000 1457.1840
v  1443.5613 3.0000 1457.1838
v  -1500.7568 3.0000 1247.3425
v  1443.5613 3.0000 1247.3424
v  1443.5613 0.0980 1247.3424
v  1443.5613 0.0980 1457.1838
v  -1500.7568 0.0980 1247.3425
v  -1500.7568 0.0980 1457.1840
# 8 vertices

vn 0.0000 1.0000 -0.0000
vn 0.0000 -1.0000 -0.0000
vn 1.0000 0.0000 -0.0000
vn -0.0000 0.0000 -1.0000
vn -1.0000 0.0000 0.0000
vn 0.0000 0.0000 1.0000
# 6 vertex normals

vt -0.1836 12.0627 1.0000
vt -0.1836 -11.0627 1.0000
vt 1.1836 12.0627 1.0000
vt 1.1836 -11.0627 1.0000
vt -0.1836 -11.0627 0.0000
vt 1.1836 -11.0627 0.0000
vt -0.1836 12.0627 0.0000
vt 1.1836 12.0627 0.0000
vt 1.1836 1.0000 -11.0627
vt -0.1836 1.0000 -11.0627
vt 1.1836 0.0000 -11.0627
vt -0.1836 0.0000 -11.0627
vt 12.0627 1.0000 1.1836
vt -11.0627 1.0000 1.1836
vt 12.0627 0.0000 1.1836
vt -11.0627 0.0000 1.1836
vt 1.1836 1.0000 12.0627
vt -0.1836 1.0000 12.0627
vt 1.1836 0.0000 12.0627
vt -0.1836 0.0000 12.0627
vt 12.0627 1.0000 -0.1836
vt -11.0627 1.0000 -0.1836
vt 12.0627 0.0000 -0.1836
vt -11.0627 0.0000 -0.1836
# 24 texture coords

o Box002
g Box002
usemtl Material__25
s 2
f 9/25/7 10/26/7 11/27/7 
f 12/28/7 11/27/7 10/26/7 
s 4
f 13/29/8 14/30/8 15/31/8 
f 16/32/8 15/31/8 14/30/8 
s 8
f 12/33/9 10/34/9 13/35/9 
f 14/36/9 13/35/9 10/34/9 
s 16
f 11/37/10 12/38/10 15/39/10 
f 13/40/10 15/39/10 12/38/10 
s 32
f 9/41/11 11/42/11 16/43/11 
f 15/44/11 16/43/11 11/42/11 
s 64
f 10/45/12 9/46/12 14/47/12 
f 16/48/12 14/47/12 9/46/12 
# 12 faces

#
# object Box003
#

v  -1500.7568 3.0000 658.0266
v  1443.5613 3.0000 658.0265
v  -1500.7568 3.0000 448.1852
v  1443.5613 3.0000 448.1850
v  1443.5613 0.0980 448.1850
v  1443.5613 0.0980 658.0265
v  -1500.7568 0.0980 448.1852
v  -1500.7568 0.0980 658.0266
# 8 vertices

vn 0.0000 1.0000 -0.0000
vn 0.0000 -1.0000 -0.0000
vn 1.0000 0.0000 -0.0000
vn -0.0000 0.0000 -1.0000
vn -1.0000 0.0000 0.0000
vn 0.0000 0.0000 1.0000
# 6 vertex normals

vt -0.1836 12.0627 1.0000
vt -0.1836 -11.0627 1.0000
vt 1.1836 12.0627 1.0000
vt 1.1836 -11.0627 1.0000
vt -0.1836 -11.0627 0.0000
vt 1.1836 -11.0627 0.0000
vt -0.1836 12.0627 0.0000
vt 1.1836 12.0627 0.0000
vt 1.1836 1.0000 -11.0627
vt -0.1836 1.0000 -11.0627
vt 1.1836 0.0000 -11.0627
vt -0.1836 0.0000 -11.0627
vt 12.0627 1.0000 1.1836
vt -11.0627 1.0000 1.1836
vt 12.0627 0.0000 1.1836
vt -11.0627 0.0000 1.1836
vt 1.1836 1.0000 12.0627
vt -0.1836 1.0000 12.0627
vt 1.1836 0.0000 12.0627
vt -0.1836 0.0000 12.0627
vt 12.0627 1.0000 -0.1836
vt -11.0627 1.0000 -0.1836
vt 12.0627 0.0000 -0.1836
vt -11.0627 0.0000 -0.1836
# 24 texture coords

o Box003
g Box003
usemtl Material__25
s 2
f 17/49/13 18/50/13 19/51/13 
f 20/52/13 19/51/13 18/50/13 
s 4
f 21/53/14 22/54/14 23/55/14 
f 24/56/14 23/55/14 22/54/14 
s 8
f 20/57/15 18/58/15 21/59/15 
f 22/60/15 21/59/15 18/58/15 
s 16
f 19/61/16 20/62/16 23/63/16 
f 21/64/16 23/63/16 20/62/16 
s 32
f 17/65/17 19/66/17 24/67/17 
f 23/68/17 24/67/17 19/66/17 
s 64
f 18/69/18 17/70/18 22/71/18 
f 24/72/18 22/71/18 17/70/18 
# 12 faces

#
# object Box005
#

v  57.7746 3.0000 -120.5465
v  1263.7368 3.0000 -120.5465
v  57.7746 3.0000 -330.3879
v  1263.7368 3.0000 -330.3880
v  1263.7368 0.0980 -330.3880
v  1263.7368 0.0980 -120.5465
v  57.7746 0.0980 -330.3879
v  57.7746 0.0980 -120.5465
# 8 vertices

vn 0.0000 1.0000 -0.0000
vn 0.0000 -1.0000 -0.0000
vn 1.0000 0.0000 -0.0000
vn -0.0000 0.0000 -1.0000
vn -1.0000 0.0000 0.0000
vn 0.0000 0.0000 1.0000
# 6 vertex normals

vt -0.1836 5.2360 1.0000
vt -0.1836 -4.2360 1.0000
vt 1.1836 5.2360 1.0000
vt 1.1836 -4.2360 1.0000
vt -0.1836 -4.2360 0.0000
vt 1.1836 -4.2360 0.0000
vt -0.1836 5.2360 0.0000
vt 1.1836 5.2360 0.0000
vt 1.1836 1.0000 -4.2360
vt -0.1836 1.0000 -4.2360
vt 1.1836 0.0000 -4.2360
vt -0.1836 0.0000 -4.2360
vt 5.2360 1.0000 1.1836
vt -4.2360 1.0000 1.1836
vt 5.2360 0.0000 1.1836
vt -4.2360 0.0000 1.1836
vt 1.1836 1.0000 5.2360
vt -0.1836 1.0000 5.2360
vt 1.1836 0.0000 5.2360
vt -0.1836 0.0000 5.2360
vt 5.2360 1.0000 -0.1836
vt -4.2360 1.0000 -0.1836
vt 5.2360 0.0000 -0.1836
vt -4.2360 0.0000 -0.1836
# 24 texture coords

o Box005
g Box005
usemtl Material__25
s 2
f 25/73/19 26/74/19 27/75/19 
f 28/76/19 27/75/19 26/74/19 
s 4
f 29/77/20 30/78/20 31/79/20 
f 32/80/20 31/79/20 30/78/20 
s 8
f 28/81/21 26/82/21 29/83/21 
f 30/84/21 29/83/21 26/82/21 
s 16
f 27/85/22 28/86/22 31/87/22 
f 29/88/22 31/87/22 28/86/22 
s 32
f 25/89/23 27/90/23 32/91/23 
f 31/92/23 32/91/23 27/90/23 
s 64
f 26/93/24 25/94/24 30/95/24 
f 32/96/24 30/95/24 25/94/24 
# 12 faces

#
# object Box006
#

v  -909.8773 3.0000 -649.6159
v  -95.6198 3.0000 -649.6160
v  -909.8773 3.0000 -859.4574
v  -95.6198 3.0000 -859.4575
v  -95.6198 0.0980 -859.4575
v  -95.6198 0.0980 -649.6160
v  -909.8773 0.0980 -859.4574
v  -909.8773 0.0980 -649.6159
# 8 vertices

vn 0.0000 1.0000 -0.0000
vn 0.0000 -1.0000 -0.0000
vn 1.0000 0.0000 -0.0000
vn -0.0000 0.0000 -1.0000
vn -1.0000 0.0000 0.0000
vn 0.0000 0.0000 1.0000
# 6 vertex normals

vt -0.1836 3.6977 1.0000
vt -0.1836 -2.6977 1.0000
vt 1.1836 3.6977 1.0000
vt 1.1836 -2.6977 1.0000
vt -0.1836 -2.6977 0.0000
vt 1.1836 -2.6977 0.0000
vt -0.1836 3.6977 0.0000
vt 1.1836 3.6977 0.0000
vt 1.1836 1.0000 -2.6977
vt -0.1836 1.0000 -2.6977
vt 1.1836 0.0000 -2.6977
vt -0.1836 0.0000 -2.6977
vt 3.6977 1.0000 1.1836
vt -2.6977 1.0000 1.1836
vt 3.6977 0.0000 1.1836
vt -2.6977 0.0000 1.1836
vt 1.1836 1.0000 3.6977
vt -0.1836 1.0000 3.6977
vt 1.1836 0.0000 3.6977
vt -0.1836 0.0000 3.6977
vt 3.6977 1.0000 -0.1836
vt -2.6977 1.0000 -0.1836
vt 3.6977 0.0000 -0.1836
vt -2.6977 0.0000 -0.1836
# 24 texture coords

o Box006
g Box006
usemtl Material__25
s 2
f 33/97/25 34/98/25 35/99/25 
f 36/100/25 35/99/25 34/98/25 
s 4
f 37/101/26 38/102/26 39/103/26 
f 40/104/26 39/103/26 38/102/26 
s 8
f 36/105/27 34/106/27 37/107/27 
f 38/108/27 37/107/27 34/106/27 
s 16
f 35/109/28 36/110/28 39/111/28 
f 37/112/28 39/111/28 36/110/28 
s 32
f 33/113/29 35/114/29 40/115/29 
f 39/116/29 40/115/29 35/114/29 
s 64
f 34/117/30 33/118/30 38/119/30 
f 40/120/30 38/119/30 33/118/30 
# 12 faces

#
# object Box007
#

v  2197.9338 3.0000 299.1776
v  2197.9336 3.0000 -431.5936
v  1264.1824 3.0000 -431.5935
v  1264.1825 3.0000 299.1777
v  2197.9338 0.0980 299.1776
v  1264.1825 0.0980 299.1777
v  1264.1824 0.0980 -431.5935
v  2197.9336 0.0980 -431.5936
# 8 vertices

vn 0.0000 1.0000 -0.0000
vn 0.0000 -1.0000 -0.0000
vn 1.0000 0.0000 -0.0000
vn -0.0000 0.0000 -1.0000
vn -1.0000 0.0000 0.0000
vn 0.0000 0.0000 1.0000
# 6 vertex normals

vt 0.2100 0.0000 1.0000
vt 0.7900 0.0000 1.0000
vt 0.7900 1.0000 1.0000
vt 0.2100 1.0000 1.0000
vt 0.7900 0.0000 0.0000
vt 0.7900 1.0000 0.0000
vt 0.2100 1.0000 0.0000
vt 0.2100 0.0000 0.0000
vt 0.0000 1.0000 0.7900
vt 0.0000 0.0000 0.7900
vt 1.0000 0.0000 0.7900
vt 1.0000 1.0000 0.7900
vt 0.0000 1.0000 0.2100
vt 0.0000 0.0000 0.2100
vt 1.0000 0.0000 0.2100
vt 1.0000 1.0000 0.2100
# 16 texture coords

o Box007
g Box007
usemtl Material__26
s 2
f 41/121/31 42/122/31 43/123/31 
f 43/123/31 44/124/31 41/121/31 
s 4
f 45/125/32 46/126/32 47/127/32 
f 47/127/32 48/128/32 45/125/32 
s 8
f 41/127/33 45/128/33 48/125/33 
f 48/125/33 42/126/33 41/127/33 
s 16
f 42/129/34 48/130/34 47/131/34 
f 47/131/34 43/132/34 42/129/34 
s 32
f 43/124/35 47/121/35 46/122/35 
f 46/122/35 44/123/35 43/124/35 
s 64
f 44/133/36 46/134/36 45/135/36 
f 45/135/36 41/136/36 44/133/36 
# 12 faces

#
# object Box008
#

v  -2007.2495 3.0000 68.9243
v  -911.6328 3.0000 68.9243
v  -2007.2495 3.0000 -1034.5767
v  -911.6328 3.0000 -1034.5767
v  -911.6328 0.0980 -1034.5767
v  -911.6328 0.0980 68.9243
v  -2007.2495 0.0980 -1034.5767
v  -2007.2495 0.0980 68.9243
# 8 vertices

vn 0.0000 1.0000 -0.0000
vn 0.0000 -1.0000 -0.0000
vn 1.0000 0.0000 -0.0000
vn -0.0000 0.0000 -1.0000
vn -1.0000 0.0000 0.0000
vn 0.0000 0.0000 1.0000
# 6 vertex normals

vt -3.0949 4.8026 1.0000
vt -3.0949 -3.8026 1.0000
vt 4.0949 4.8026 1.0000
vt 4.0949 -3.8026 1.0000
vt -3.0949 -3.8026 0.0000
vt 4.0949 -3.8026 0.0000
vt -3.0949 4.8026 0.0000
vt 4.0949 4.8026 0.0000
vt 4.0949 1.0000 -3.8026
vt -3.0949 1.0000 -3.8026
vt 4.0949 0.0000 -3.8026
vt -3.0949 0.0000 -3.8026
vt 4.8026 1.0000 4.0949
vt -3.8026 1.0000 4.0949
vt 4.8026 0.0000 4.0949
vt -3.8026 0.0000 4.0949
vt 4.0949 1.0000 4.8026
vt -3.0949 1.0000 4.8026
vt 4.0949 0.0000 4.8026
vt -3.0949 0.0000 4.8026
vt 4.8026 1.0000 -3.0949
vt -3.8026 1.0000 -3.0949
vt 4.8026 0.0000 -3.0949
vt -3.8026 0.0000 -3.0949
# 24 texture coords

o Box008
g Box008
usemtl Material__27
s 2
f 49/137/37 50/138/37 51/139/37 
f 52/140/37 51/139/37 50/138/37 
s 4
f 53/141/38 54/142/38 55/143/38 
f 56/144/38 55/143/38 54/142/38 
s 8
f 52/145/39 50/146/39 53/147/39 
f 54/148/39 53/147/39 50/146/39 
s 16
f 51/149/40 52/150/40 55/151/40 
f 53/152/40 55/151/40 52/150/40 
s 32
f 49/153/41 51/154/41 56/155/41 
f 55/156/41 56/155/41 51/154/41 
s 64
f 50/157/42 49/158/42 54/159/42 
f 56/160/42 54/159/42 49/158/42 
# 12 faces

