# 3ds Max Wavefront OBJ Exporter v0.97b - (c)2007 guruware
# File Created: 18.01.2021 14:29:11

mtllib Juego2.mtl

#
# object Layer_02zc
#

v  -2.8897 9.0758 -1.3500
v  -2.8897 9.0758 -1.1500
v  -3.0897 9.1758 -1.1500
v  -3.0897 9.1758 -1.3500
v  -2.9897 9.3758 -1.3500
v  -2.9897 9.3758 -1.1500
v  -2.6897 9.1758 -1.1500
v  -2.6897 9.1758 -1.3500
v  -3.9897 9.1758 -1.3500
v  -3.9897 9.1758 -1.1500
v  -4.2687 9.0297 -1.1500
v  -4.2687 9.0297 -1.3500
v  -4.3897 9.1758 -1.3500
v  -4.3897 9.1758 -1.1500
v  -3.9897 9.3758 -1.1500
v  -3.9897 9.3758 -1.3500
v  -2.8897 9.0758 1.1500
v  -2.8897 9.0758 1.3500
v  -3.0897 9.1758 1.3500
v  -3.0897 9.1758 1.1500
v  -2.9897 9.3758 1.3500
v  -2.6897 9.1758 1.3500
v  -2.9897 9.3758 1.1500
v  -2.6897 9.1758 1.1500
v  -3.9897 9.1758 1.1500
v  -3.9897 9.1758 1.3500
v  -4.2687 9.0297 1.3500
v  -4.2687 9.0297 1.1500
v  -4.3897 9.1758 1.3500
v  -3.9897 9.3758 1.3500
v  -4.3897 9.1758 1.1500
v  -3.9897 9.3758 1.1500
v  -4.3781 6.2758 -1.1000
v  -4.3781 6.2758 1.1000
v  -4.1263 6.2758 -1.1000
v  -4.1263 6.2758 1.1000
v  -4.4228 6.1758 -1.1000
v  -4.4228 6.1758 1.1000
v  -4.1710 6.1758 1.1000
v  -4.1710 6.1758 -1.1000
v  -2.8897 7.6758 1.3500
v  -2.6897 7.6758 1.3500
v  -2.8897 7.6758 1.1500
v  -2.6897 7.6758 1.1500
v  -2.8897 7.6758 -1.3500
v  -2.8897 7.6758 -1.1500
v  -2.6897 7.6758 -1.3500
v  -2.6897 7.6758 -1.1500
v  -4.7128 4.8758 1.1000
v  -4.7128 4.8758 -1.1000
v  -4.6680 4.9758 1.1000
v  -4.6680 4.9758 -1.1000
v  -4.9645 4.8758 -1.1000
v  -4.9645 4.8758 1.1000
v  -4.9198 4.9758 1.1000
v  -4.9198 4.9758 -1.1000
v  -5.4649 3.6758 -1.1000
v  -5.4649 3.6758 1.1000
v  -5.2131 3.6758 -1.1000
v  -5.2131 3.6758 1.1000
v  -5.5096 3.5758 -1.1000
v  -5.5096 3.5758 1.1000
v  -5.2579 3.5758 1.1000
v  -5.2579 3.5758 -1.1000
v  -6.0048 2.3758 -1.1000
v  -6.0048 2.3758 1.1000
v  -5.7530 2.3758 -1.1000
v  -5.7530 2.3758 1.1000
v  7.0103 1.2070 -1.4000
v  7.0103 1.2070 -1.1000
v  7.0103 0.0758 -1.1000
v  7.0103 0.0758 -1.4000
v  6.7103 0.0758 -1.4000
v  6.7103 0.0758 -1.1000
v  6.7103 1.2332 -1.1000
v  6.7103 1.2332 -1.4000
v  7.0103 0.0758 1.4000
v  7.0103 1.2070 1.4000
v  6.7103 0.0758 1.4000
v  6.7103 1.2332 1.4000
v  7.0103 1.2070 1.1000
v  7.0103 0.0758 1.1000
v  6.7103 0.0758 1.1000
v  6.7103 1.2332 1.1000
v  -7.2442 1.8914 -1.3500
v  -7.2442 1.8914 -1.1500
v  -7.1368 1.5417 -1.1500
v  -7.1368 1.5417 -1.3500
v  -7.2896 1.4159 -1.3500
v  -7.2896 1.4159 -1.1500
v  -7.4442 1.8914 -1.1500
v  -7.4442 1.8914 -1.3500
v  -6.5897 0.9758 -1.1000
v  -6.5897 0.9758 1.1000
v  -6.5450 1.0758 1.1000
v  -6.5450 1.0758 -1.1000
v  -6.2932 1.0758 -1.1000
v  -6.2932 1.0758 1.1000
v  -6.3379 0.9758 1.1000
v  -6.3379 0.9758 -1.1000
v  -6.6595 0.8758 -1.3500
v  -6.6595 0.8758 -1.1500
v  -6.5803 1.0578 -1.3500
v  -6.5803 1.0578 -1.1500
v  -7.2442 1.8914 1.1500
v  -7.2442 1.8914 1.3500
v  -7.1368 1.5417 1.3500
v  -7.1368 1.5417 1.1500
v  -7.2896 1.4159 1.3500
v  -7.4442 1.8914 1.3500
v  -7.2896 1.4159 1.1500
v  -7.4442 1.8914 1.1500
v  -6.6595 0.8758 1.1500
v  -6.6595 0.8758 1.3500
v  -6.5803 1.0578 1.3500
v  -6.5803 1.0578 1.1500
v  -6.0495 2.2758 -1.1000
v  -6.0495 2.2758 1.1000
v  -5.7977 2.2758 1.1000
v  -5.7977 2.2758 -1.1000
v  -3.6897 7.2758 1.4000
v  -3.9897 7.2758 1.4000
v  -6.6897 0.0758 1.4000
v  -6.9897 0.0758 1.4000
v  -3.9897 7.2758 1.1000
v  -3.6897 7.2758 1.1000
v  -6.6897 0.0758 1.1000
v  -6.9897 0.0758 1.1000
v  -6.6897 0.0758 -1.1000
v  -6.6897 0.0758 -1.4000
v  -3.6897 7.2758 -1.4000
v  -3.6897 7.2758 -1.1000
v  -6.9897 0.0758 -1.4000
v  -6.9897 0.0758 -1.1000
v  -3.9897 7.2758 -1.4000
v  -3.9897 7.2758 -1.1000
v  -2.6897 7.6758 -1.4000
v  -2.6897 7.6758 -1.0000
v  -2.2897 7.5758 -1.4000
v  -2.2897 7.5758 -1.0000
v  -2.6897 7.2758 -1.0000
v  -2.2897 7.1758 -1.0000
v  -2.6897 7.2758 -1.4000
v  -2.2897 7.1758 -1.4000
v  -2.6897 7.2758 1.0000
v  -2.6897 7.6758 1.0000
v  -2.2897 7.5758 1.0000
v  -2.2897 7.1758 1.0000
v  -3.7897 7.6758 -1.0000
v  -3.7897 7.6758 -1.4000
v  -3.9897 7.2758 -1.0000
v  -3.9897 7.2758 1.0000
v  -3.7897 7.6758 1.0000
v  -2.6897 7.6758 1.4000
v  -2.6897 7.2758 1.4000
v  -2.2897 7.5758 1.4000
v  -2.2897 7.1758 1.4000
v  -3.7897 7.6758 1.4000
v  -4.0732 7.0758 -1.4000
v  -4.0732 7.0758 1.4000
v  6.2103 1.6758 -1.4000
v  6.2103 1.6758 -1.0000
v  7.1103 1.5758 -1.0000
v  7.1103 1.5758 -1.4000
v  5.7103 1.8758 -1.4000
v  5.7103 1.8758 -1.0000
v  7.4103 1.1758 -1.4000
v  7.4442 0.9489 -1.4000
v  7.0737 0.9501 -1.4000
v  6.2103 1.2758 -1.0000
v  6.2103 1.2758 1.0000
v  7.4103 1.1758 1.0000
v  7.4103 1.1758 -1.0000
v  6.2103 1.2758 -1.4000
v  6.2103 1.6758 1.0000
v  7.1103 1.5758 1.0000
v  5.7103 1.4758 -1.0000
v  5.7103 1.4758 -1.4000
v  5.7103 1.4758 1.0000
v  5.7103 1.8758 1.0000
v  7.4442 0.9489 1.4000
v  7.4103 1.1758 1.4000
v  7.0737 0.9501 1.4000
v  6.2103 1.6758 1.4000
v  6.2103 1.2758 1.4000
v  7.1103 1.5758 1.4000
v  5.7103 1.8758 1.4000
v  5.7103 1.4758 1.4000
# 188 vertices

vn -0.4472 -0.8944 -0.0000
vn 0.5547 0.8321 -0.0000
vn 0.0000 0.0000 -1.0000
vn 0.0000 0.0000 1.0000
vn 0.4637 -0.8860 -0.0000
vn -0.4472 0.8944 -0.0000
vn 0.0000 1.0000 -0.0000
vn 0.0000 -1.0000 -0.0000
vn -0.9129 0.4082 -0.0000
vn 0.9129 -0.4083 -0.0000
vn 0.0000 -0.0000 -1.0000
vn 1.0000 0.0000 -0.0000
vn -1.0000 0.0000 -0.0000
vn 0.9129 -0.4082 -0.0000
vn 0.0000 -0.0000 1.0000
vn -0.0000 -0.0000 1.0000
vn 0.9559 0.2937 -0.0000
vn -0.9510 -0.3093 -0.0000
vn -0.0000 -0.0000 -1.0000
vn -0.9129 0.4083 -0.0000
vn -0.9129 0.4083 0.0000
vn 0.0000 1.0000 0.0000
vn -0.6508 -0.7592 -0.0000
vn 0.6562 0.7546 -0.0000
vn -0.0000 0.0000 1.0000
vn -0.0000 0.0000 -1.0000
vn -0.9231 0.3846 -0.0000
vn 0.9231 -0.3846 -0.0000
vn -0.9222 0.3867 -0.0000
vn 0.9230 -0.3848 -0.0000
vn 0.2425 0.9701 -0.0000
vn -0.8944 0.4472 -0.0000
vn 0.9228 -0.3853 -0.0000
vn 0.1104 0.9939 -0.0000
vn 0.3714 0.9285 -0.0000
vn 0.0830 0.9965 -0.0000
vn 0.8000 0.6000 -0.0000
vn 0.9890 0.1481 -0.0000
vn 0.5803 0.8144 -0.0000
# 39 vertex normals

vt -40.0810 25.7783 0.0000
vt -40.0810 23.7783 0.0000
vt -38.0810 23.7783 0.0000
vt -38.0810 25.7783 0.0000
vt 41.0810 25.7783 0.0000
vt 41.0810 23.7783 0.0000
vt 44.0810 23.7783 0.0000
vt 44.0810 25.7783 0.0000
vt -38.0810 92.0000 0.0000
vt -39.0810 94.0000 0.0000
vt -42.0810 92.0000 0.0000
vt -40.0810 91.0000 0.0000
vt 41.0810 94.0000 0.0000
vt 40.0810 92.0000 0.0000
vt 44.0810 92.0000 0.0000
vt 42.0810 91.0000 0.0000
vt -29.0810 25.7783 0.0000
vt -29.0810 23.7783 0.0000
vt -26.2910 23.7783 0.0000
vt -26.2910 25.7783 0.0000
vt 27.0810 25.7783 0.0000
vt 27.0810 23.7783 0.0000
vt 31.0810 23.7783 0.0000
vt 31.0810 25.7783 0.0000
vt -26.2910 90.5397 0.0000
vt -25.0810 92.0000 0.0000
vt -29.0810 94.0000 0.0000
vt -29.0810 92.0000 0.0000
vt 27.0810 92.0000 0.0000
vt 28.2910 90.5397 0.0000
vt 31.0810 94.0000 0.0000
vt 31.0810 92.0000 0.0000
vt -40.0810 0.7783 0.0000
vt -40.0810 -1.2217 0.0000
vt -38.0810 -1.2217 0.0000
vt -38.0810 0.7783 0.0000
vt 41.0810 0.7783 0.0000
vt 41.0810 -1.2217 0.0000
vt 44.0810 -1.2217 0.0000
vt 44.0810 0.7783 0.0000
vt -29.0810 0.7783 0.0000
vt -29.0810 -1.2217 0.0000
vt -26.2910 -1.2217 0.0000
vt -26.2910 0.7783 0.0000
vt 27.0810 0.7783 0.0000
vt 27.0810 -1.2217 0.0000
vt 31.0810 -1.2217 0.0000
vt 31.0810 0.7783 0.0000
vt 27.1971 23.2783 0.0000
vt 27.1971 1.2783 0.0000
vt 29.7149 23.2783 0.0000
vt 29.7149 1.2783 0.0000
vt -21.2783 62.0000 0.0000
vt 0.7217 62.0000 0.0000
vt 0.7217 63.0000 0.0000
vt -21.2783 63.0000 0.0000
vt 1.2783 62.0000 0.0000
vt 23.2783 62.0000 0.0000
vt 1.2783 63.0000 0.0000
vt 23.2783 63.0000 0.0000
vt 42.0810 77.0000 0.0000
vt 44.0810 77.0000 0.0000
vt -40.0810 77.0000 0.0000
vt -42.0810 77.0000 0.0000
vt 0.7783 92.0000 0.0000
vt -1.2217 92.0000 0.0000
vt 0.7783 77.0000 0.0000
vt -1.2217 77.0000 0.0000
vt 1.2217 77.0000 0.0000
vt 3.2217 77.0000 0.0000
vt 1.2217 91.0000 0.0000
vt 3.2217 91.0000 0.0000
vt -23.7783 77.0000 0.0000
vt -21.7783 77.0000 0.0000
vt -23.7783 91.0000 0.0000
vt -21.7783 91.0000 0.0000
vt 25.7783 92.0000 0.0000
vt 23.7783 92.0000 0.0000
vt 25.7783 77.0000 0.0000
vt 23.7783 77.0000 0.0000
vt 1.2783 49.0000 0.0000
vt 23.2783 49.0000 0.0000
vt 1.2783 50.0000 0.0000
vt 23.2783 50.0000 0.0000
vt -21.2783 49.0000 0.0000
vt 0.7217 49.0000 0.0000
vt 0.7217 50.0000 0.0000
vt -21.2783 50.0000 0.0000
vt 21.7799 23.2783 0.0000
vt 21.7799 1.2783 0.0000
vt 24.2977 23.2783 0.0000
vt 24.2977 1.2783 0.0000
vt 16.3290 23.2783 0.0000
vt 16.3290 1.2783 0.0000
vt 18.8468 23.2783 0.0000
vt 18.8468 1.2783 0.0000
vt -21.2783 36.0000 0.0000
vt 0.7217 36.0000 0.0000
vt 0.7217 37.0000 0.0000
vt -21.2783 37.0000 0.0000
vt 1.2783 36.0000 0.0000
vt 23.2783 36.0000 0.0000
vt 1.2783 37.0000 0.0000
vt 23.2783 37.0000 0.0000
vt 10.9306 23.2783 0.0000
vt 10.9306 1.2783 0.0000
vt 13.4484 23.2783 0.0000
vt 13.4484 1.2783 0.0000
vt 26.2783 12.3124 0.0000
vt 23.2783 12.3124 0.0000
vt 23.2783 1.0000 0.0000
vt 26.2783 1.0000 0.0000
vt -24.2783 1.0000 0.0000
vt -21.2783 1.0000 0.0000
vt -21.2783 12.5742 0.0000
vt -24.2783 12.5742 0.0000
vt -139.0809 12.3124 0.0000
vt -139.0809 1.0000 0.0000
vt -136.0810 1.0000 0.0000
vt -136.0810 12.5742 0.0000
vt 141.0809 1.0000 0.0000
vt 141.0809 12.3124 0.0000
vt 138.0810 1.0000 0.0000
vt 138.0810 12.5742 0.0000
vt 0.7217 1.0000 0.0000
vt 3.7217 1.0000 0.0000
vt 3.7217 12.5742 0.0000
vt 0.7217 12.5742 0.0000
vt 1.2783 12.3124 0.0000
vt -1.7217 12.3124 0.0000
vt -1.7217 1.0000 0.0000
vt 1.2783 1.0000 0.0000
vt 25.7783 19.1567 0.0000
vt 23.7783 19.1567 0.0000
vt 23.7783 15.6597 0.0000
vt 25.7783 15.6597 0.0000
vt -23.7783 14.4013 0.0000
vt -21.7783 14.4013 0.0000
vt -21.7783 19.1567 0.0000
vt -23.7783 19.1567 0.0000
vt 2.3898 15.6597 0.0000
vt 3.9176 14.4013 0.0000
vt 5.4643 19.1567 0.0000
vt 3.4643 19.1567 0.0000
vt -1.9176 14.4013 0.0000
vt -0.3898 15.6597 0.0000
vt -3.4643 19.1567 0.0000
vt -1.4643 19.1567 0.0000
vt -21.2783 10.0000 0.0000
vt 0.7217 10.0000 0.0000
vt 0.7217 11.0000 0.0000
vt -21.2783 11.0000 0.0000
vt 5.5282 23.2783 0.0000
vt 5.5282 1.2783 0.0000
vt 8.0460 23.2783 0.0000
vt 8.0460 1.2783 0.0000
vt 1.2783 10.0000 0.0000
vt 23.2783 10.0000 0.0000
vt 1.2783 11.0000 0.0000
vt 23.2783 11.0000 0.0000
vt -2.3834 25.7783 0.0000
vt -2.3834 23.7783 0.0000
vt 3.9176 25.7783 0.0000
vt 3.9176 23.7783 0.0000
vt -0.3898 25.7783 0.0000
vt -0.3898 23.7783 0.0000
vt 5.1754 25.7783 0.0000
vt 5.1754 23.7783 0.0000
vt -3.1754 10.8201 0.0000
vt -2.3834 9.0000 0.0000
vt 4.3834 9.0000 0.0000
vt 5.1754 10.8201 0.0000
vt 0.7783 19.1567 0.0000
vt -1.2217 19.1567 0.0000
vt -1.2217 15.6597 0.0000
vt 0.7783 15.6597 0.0000
vt 1.2217 14.4013 0.0000
vt 3.2217 14.4013 0.0000
vt 3.2217 19.1567 0.0000
vt 1.2217 19.1567 0.0000
vt -2.3834 0.7783 0.0000
vt -2.3834 -1.2217 0.0000
vt 3.9176 0.7783 0.0000
vt 3.9176 -1.2217 0.0000
vt -0.3898 0.7783 0.0000
vt -0.3898 -1.2217 0.0000
vt 5.1754 0.7783 0.0000
vt 5.1754 -1.2217 0.0000
vt -21.2783 23.0000 0.0000
vt 0.7217 23.0000 0.0000
vt 0.7217 24.0000 0.0000
vt -21.2783 24.0000 0.0000
vt 1.2783 23.0000 0.0000
vt 23.2783 23.0000 0.0000
vt 1.2783 24.0000 0.0000
vt 23.2783 24.0000 0.0000
vt 34.0810 73.0000 0.0000
vt 31.0810 73.0000 0.0000
vt 4.0810 1.0000 0.0000
vt 1.0810 1.0000 0.0000
vt -29.0810 73.0000 0.0000
vt -32.0810 73.0000 0.0000
vt -2.0810 1.0000 0.0000
vt 0.9190 1.0000 0.0000
vt 0.7217 73.0000 0.0000
vt 3.7217 73.0000 0.0000
vt 1.2783 73.0000 0.0000
vt -1.7217 73.0000 0.0000
vt 26.2783 73.0000 0.0000
vt 23.2783 73.0000 0.0000
vt -24.2783 73.0000 0.0000
vt -21.2783 73.0000 0.0000
vt 1.2217 92.0000 0.0000
vt 3.2217 92.0000 0.0000
vt 0.7783 90.5397 0.0000
vt -1.2217 90.5397 0.0000
vt 25.7783 90.5397 0.0000
vt 23.7783 90.5397 0.0000
vt -23.7783 92.0000 0.0000
vt -21.7783 92.0000 0.0000
vt 44.0810 26.2783 0.0000
vt 44.0810 22.2783 0.0000
vt 48.0810 26.2783 0.0000
vt 48.0810 22.2783 0.0000
vt 44.0810 73.0000 0.0000
vt 48.0810 76.0000 0.0000
vt 48.0810 72.0000 0.0000
vt -42.0810 73.0000 0.0000
vt -46.0810 76.0000 0.0000
vt -46.0810 72.0000 0.0000
vt 44.0810 2.2783 0.0000
vt 48.0810 2.2783 0.0000
vt -20.2783 77.0000 0.0000
vt -24.2783 77.0000 0.0000
vt -20.2783 73.0000 0.0000
vt 31.0810 22.2783 0.0000
vt 31.0810 2.2783 0.0000
vt -31.0810 77.0000 0.0000
vt 33.0810 77.0000 0.0000
vt 33.0810 26.2783 0.0000
vt 33.0810 22.2783 0.0000
vt 26.2783 71.0000 0.0000
vt -1.7217 71.0000 0.0000
vt 3.7217 77.0000 0.0000
vt -0.2783 77.0000 0.0000
vt -0.2783 73.0000 0.0000
vt 33.0810 2.2783 0.0000
vt 33.0810 -1.7217 0.0000
vt 44.0810 -1.7217 0.0000
vt 48.0810 -1.7217 0.0000
vt 133.0809 26.2783 0.0000
vt 133.0809 22.2783 0.0000
vt 142.0810 22.2783 0.0000
vt 142.0810 26.2783 0.0000
vt 128.0810 26.2783 0.0000
vt 128.0810 22.2783 0.0000
vt -143.0810 12.0000 0.0000
vt -143.4205 9.7316 0.0000
vt -139.7155 9.7434 0.0000
vt 133.0809 2.2783 0.0000
vt 145.0810 2.2783 0.0000
vt 145.0810 22.2783 0.0000
vt 133.0809 17.0000 0.0000
vt 133.0809 13.0000 0.0000
vt 145.0810 12.0000 0.0000
vt 142.0810 16.0000 0.0000
vt -131.0809 13.0000 0.0000
vt -131.0809 17.0000 0.0000
vt -140.0810 16.0000 0.0000
vt 128.0810 19.0000 0.0000
vt 128.0810 15.0000 0.0000
vt -126.0810 15.0000 0.0000
vt -126.0810 19.0000 0.0000
vt 128.0810 2.2783 0.0000
vt 26.2783 16.0000 0.0000
vt 22.2783 16.0000 0.0000
vt 26.2783 12.0000 0.0000
vt 22.2783 12.0000 0.0000
vt 145.4205 9.7316 0.0000
vt 141.7155 9.7434 0.0000
vt 133.0809 -1.7217 0.0000
vt 142.0810 -1.7217 0.0000
vt 142.0810 2.2783 0.0000
vt 128.0810 -1.7217 0.0000
vt 2.2783 16.0000 0.0000
vt -1.7217 16.0000 0.0000
vt 2.2783 12.0000 0.0000
vt -1.7217 12.0000 0.0000
vt 26.2783 9.7316 0.0000
vt -1.7217 9.7316 0.0000
# 290 texture coords

o Layer_02zc
g Layer_02zc
usemtl Material__26
s off
f 1/1/1 2/2/1 3/3/1 
f 3/3/1 4/4/1 1/1/1 
f 5/5/2 6/6/2 7/7/2 
f 7/7/2 8/8/2 5/5/2 
f 4/9/3 5/10/3 8/11/3 
f 8/11/3 1/12/3 4/9/3 
f 6/13/4 3/14/4 7/15/4 
f 2/16/4 7/15/4 3/14/4 
f 9/17/5 10/18/5 11/19/5 
f 11/19/5 12/20/5 9/17/5 
f 13/21/6 14/22/6 15/23/6 
f 15/23/6 16/24/6 13/21/6 
f 12/25/3 13/26/3 16/27/3 
f 16/27/3 9/28/3 12/25/3 
f 14/29/4 11/30/4 15/31/4 
f 10/32/4 15/31/4 11/30/4 
f 16/24/7 15/23/7 5/5/7 
f 6/6/7 5/5/7 15/23/7 
f 4/4/8 3/3/8 9/17/8 
f 10/18/8 9/17/8 3/3/8 
f 9/28/3 16/27/3 4/9/3 
f 5/10/3 4/9/3 16/27/3 
f 15/31/4 10/32/4 3/14/4 
f 3/14/4 6/13/4 15/31/4 
f 17/33/1 18/34/1 19/35/1 
f 19/35/1 20/36/1 17/33/1 
f 21/13/4 19/14/4 22/15/4 
f 18/16/4 22/15/4 19/14/4 
f 20/9/3 23/10/3 24/11/3 
f 24/11/3 17/12/3 20/9/3 
f 23/37/2 21/38/2 22/39/2 
f 22/39/2 24/40/2 23/37/2 
f 25/41/5 26/42/5 27/43/5 
f 27/43/5 28/44/5 25/41/5 
f 29/29/4 27/30/4 30/31/4 
f 26/32/4 30/31/4 27/30/4 
f 28/25/3 31/26/3 32/27/3 
f 32/27/3 25/28/3 28/25/3 
f 31/45/6 29/46/6 30/47/6 
f 30/47/6 32/48/6 31/45/6 
f 32/48/7 30/47/7 23/37/7 
f 21/38/7 23/37/7 30/47/7 
f 20/36/8 19/35/8 25/41/8 
f 26/42/8 25/41/8 19/35/8 
f 30/31/4 26/32/4 19/14/4 
f 19/14/4 21/13/4 30/31/4 
f 25/28/3 32/27/3 20/9/3 
f 23/10/3 20/9/3 32/27/3 
f 33/49/7 34/50/7 35/51/7 
f 36/52/7 35/51/7 34/50/7 
f 37/53/9 38/54/9 34/55/9 
f 34/55/9 33/56/9 37/53/9 
f 39/57/10 40/58/10 36/59/10 
f 35/60/10 36/59/10 40/58/10 
f 22/15/4 18/16/4 41/61/4 
f 41/61/4 42/62/4 22/15/4 
f 17/12/11 24/11/11 43/63/11 
f 44/64/11 43/63/11 24/11/11 
f 24/65/12 22/66/12 44/67/12 
f 42/68/12 44/67/12 22/66/12 
f 43/69/13 41/70/13 17/71/13 
f 18/72/13 17/71/13 41/70/13 
f 45/73/13 46/74/13 1/75/13 
f 2/76/13 1/75/13 46/74/13 
f 1/12/11 8/11/11 45/63/11 
f 47/64/11 45/63/11 8/11/11 
f 8/77/12 7/78/12 47/79/12 
f 48/80/12 47/79/12 7/78/12 
f 7/15/4 2/16/4 46/61/4 
f 46/61/4 48/62/4 7/15/4 
f 49/81/10 50/82/10 51/83/10 
f 52/84/10 51/83/10 50/82/10 
f 53/85/9 54/86/9 55/87/9 
f 55/87/9 56/88/9 53/85/9 
f 56/89/7 55/90/7 52/91/7 
f 51/92/7 52/91/7 55/90/7 
f 57/93/7 58/94/7 59/95/7 
f 60/96/7 59/95/7 58/94/7 
f 61/97/9 62/98/9 58/99/9 
f 58/99/9 57/100/9 61/97/9 
f 63/101/14 64/102/14 60/103/14 
f 59/104/14 60/103/14 64/102/14 
f 65/105/7 66/106/7 67/107/7 
f 68/108/7 67/107/7 66/106/7 
f 69/109/12 70/110/12 71/111/12 
f 71/111/12 72/112/12 69/109/12 
f 73/113/13 74/114/13 75/115/13 
f 75/115/13 76/116/13 73/113/13 
f 69/117/3 72/118/3 73/119/3 
f 73/119/3 76/120/3 69/117/3 
f 71/121/4 70/122/4 74/123/4 
f 75/124/4 74/123/4 70/122/4 
f 77/121/15 78/122/15 79/123/15 
f 80/124/16 79/123/16 78/122/16 
f 81/117/3 82/118/3 83/119/3 
f 83/119/3 84/120/3 81/117/3 
f 83/125/13 79/126/13 80/127/13 
f 80/127/13 84/128/13 83/125/13 
f 81/129/12 78/130/12 77/131/12 
f 77/131/12 82/132/12 81/129/12 
f 85/133/17 86/134/17 87/135/17 
f 87/135/17 88/136/17 85/133/17 
f 89/137/18 90/138/18 91/139/18 
f 91/139/18 92/140/18 89/137/18 
f 88/141/19 89/142/19 92/143/19 
f 92/143/3 85/144/3 88/141/3 
f 90/145/4 87/146/4 91/147/4 
f 86/148/4 91/147/4 87/146/4 
f 93/149/20 94/150/20 95/151/20 
f 95/151/21 96/152/21 93/149/21 
f 96/153/22 95/154/22 97/155/22 
f 98/156/22 97/155/22 95/154/22 
f 99/157/10 100/158/10 98/159/10 
f 97/160/10 98/159/10 100/158/10 
f 101/161/23 102/162/23 89/163/23 
f 90/164/23 89/163/23 102/162/23 
f 88/165/24 87/166/24 103/167/24 
f 104/168/24 103/167/24 87/166/24 
f 103/169/11 101/170/11 88/141/11 
f 89/142/19 88/141/19 101/170/19 
f 102/171/25 104/172/25 87/146/25 
f 87/146/4 90/145/4 102/171/4 
f 105/173/17 106/174/17 107/175/17 
f 107/175/17 108/176/17 105/173/17 
f 109/145/4 107/146/4 110/147/4 
f 106/148/4 110/147/4 107/146/4 
f 108/141/19 111/142/19 112/143/19 
f 112/143/3 105/144/3 108/141/3 
f 111/177/18 109/178/18 110/179/18 
f 110/179/18 112/180/18 111/177/18 
f 113/181/23 114/182/23 111/183/23 
f 109/184/23 111/183/23 114/182/23 
f 114/171/25 115/172/25 107/146/25 
f 107/146/4 109/145/4 114/171/4 
f 116/169/26 113/170/26 108/141/26 
f 111/142/19 108/141/19 113/170/19 
f 108/185/24 107/186/24 116/187/24 
f 115/188/24 116/187/24 107/186/24 
f 117/189/21 118/190/21 66/191/21 
f 66/191/20 65/192/20 117/189/20 
f 119/193/10 120/194/10 68/195/10 
f 67/196/10 68/195/10 120/194/10 
f 121/197/15 122/198/15 123/199/15 
f 124/200/15 123/199/15 122/198/15 
f 125/201/3 126/202/3 127/203/3 
f 127/203/3 128/204/3 125/201/3 
f 128/125/27 124/126/27 125/205/27 
f 122/206/27 125/205/27 124/126/27 
f 123/131/28 127/132/28 126/207/28 
f 126/207/28 121/208/28 123/131/28 
f 129/111/28 130/112/28 131/209/28 
f 131/209/28 132/210/28 129/111/28 
f 133/113/27 134/114/27 135/211/27 
f 136/212/27 135/211/27 134/114/27 
f 135/201/3 131/202/3 130/203/3 
f 130/203/3 133/204/3 135/201/3 
f 132/197/4 136/198/4 129/199/4 
f 134/200/4 129/199/4 136/198/4 
f 110/147/15 106/148/15 27/30/15 
f 27/30/16 29/29/16 110/147/16 
f 105/144/11 112/143/11 28/25/11 
f 31/26/19 28/25/19 112/143/19 
f 112/180/29 110/179/29 31/213/29 
f 29/214/29 31/213/29 110/179/29 
f 28/215/30 27/216/30 105/173/30 
f 106/174/30 105/173/30 27/216/30 
f 12/217/30 11/218/30 85/133/30 
f 86/134/30 85/133/30 11/218/30 
f 92/140/29 91/139/29 13/219/29 
f 14/220/29 13/219/29 91/139/29 
f 85/144/3 92/143/3 12/25/3 
f 13/26/3 12/25/3 92/143/3 
f 91/147/15 86/148/15 11/30/15 
f 11/30/16 14/29/16 91/147/16 
f 137/221/31 138/222/31 139/223/31 
f 140/224/31 139/223/31 138/222/31 
f 138/62/16 141/225/16 140/226/16 
f 142/227/16 140/226/16 141/225/16 
f 143/228/3 137/64/3 139/229/3 
f 139/229/3 144/230/3 143/228/3 
f 145/228/3 146/64/3 147/229/3 
f 147/229/3 148/230/3 145/228/3 
f 141/222/31 145/231/31 142/224/31 
f 148/232/31 142/224/31 145/231/31 
f 149/233/32 150/234/32 151/235/32 
f 135/211/32 151/235/32 150/234/32 
f 151/236/7 152/237/7 145/231/7 
f 145/231/7 141/222/7 151/236/7 
f 152/201/3 153/238/3 145/228/3 
f 146/64/3 145/228/3 153/238/3 
f 135/201/3 150/238/3 143/228/3 
f 137/64/3 143/228/3 150/238/3 
f 149/239/15 151/198/15 141/225/15 
f 141/225/15 138/62/15 149/239/15 
f 150/240/7 149/241/7 138/222/7 
f 138/222/7 137/221/7 150/240/7 
f 154/62/4 155/225/4 156/226/4 
f 157/227/4 156/226/4 155/225/4 
f 158/239/4 122/198/4 155/225/4 
f 155/225/4 154/62/4 158/239/4 
f 159/242/33 135/209/33 122/208/33 
f 122/208/33 160/243/33 159/242/33 
f 158/244/32 153/245/32 122/206/32 
f 152/246/32 122/206/32 153/245/32 
f 153/247/7 158/248/7 154/249/7 
f 154/249/7 146/231/7 153/247/7 
f 146/231/31 154/249/31 147/232/31 
f 156/250/31 147/232/31 154/249/31 
f 161/251/34 162/252/34 163/253/34 
f 163/253/34 164/254/34 161/251/34 
f 165/255/35 166/256/35 161/251/35 
f 162/252/35 161/251/35 166/256/35 
f 167/257/3 168/258/3 69/117/3 
f 169/259/3 69/117/3 168/258/3 
f 170/252/36 171/260/36 172/261/36 
f 172/261/36 173/262/36 170/252/36 
f 162/263/4 170/264/4 173/265/4 
f 173/265/4 163/266/4 162/263/4 
f 174/267/19 161/268/19 167/257/19 
f 164/269/19 167/257/19 161/268/19 
f 171/267/19 175/268/19 172/257/19 
f 176/269/19 172/257/19 175/268/19 
f 166/270/4 177/271/4 162/263/4 
f 170/264/25 162/263/25 177/271/25 
f 178/272/3 165/273/3 161/268/3 
f 161/268/11 174/267/11 178/272/11 
f 179/272/3 180/273/3 175/268/3 
f 175/268/11 171/267/11 179/272/11 
f 177/256/35 179/274/35 170/252/35 
f 171/260/35 170/252/35 179/274/35 
f 164/275/37 163/276/37 167/277/37 
f 173/278/37 167/277/37 163/276/37 
f 181/279/4 182/265/4 78/122/4 
f 78/122/4 183/280/4 181/279/4 
f 184/263/4 185/264/4 182/265/4 
f 182/265/4 186/266/4 184/263/4 
f 187/270/4 188/271/4 184/263/4 
f 185/264/25 184/263/25 188/271/25 
f 175/260/34 184/281/34 186/282/34 
f 186/282/34 176/283/34 175/260/34 
f 180/274/35 187/284/35 175/260/35 
f 184/281/35 175/260/35 187/284/35 
f 176/285/37 186/286/37 172/287/37 
f 182/288/37 172/287/37 186/286/37 
f 168/289/38 167/277/38 182/288/38 
f 182/288/38 181/290/38 168/289/38 
f 142/224/39 148/232/39 179/274/39 
f 179/274/39 177/256/39 142/224/39 
f 140/226/16 142/227/16 177/271/16 
f 177/271/4 166/270/4 140/226/4 
f 144/230/26 139/229/26 178/272/26 
f 165/273/26 178/272/26 139/229/26 
f 139/223/39 140/224/39 166/256/39 
f 166/256/39 165/255/39 139/223/39 
f 147/232/39 156/250/39 187/284/39 
f 187/284/39 180/274/39 147/232/39 
f 148/230/3 147/229/3 179/272/3 
f 180/273/26 179/272/26 147/229/26 
f 156/226/4 157/227/4 188/271/4 
f 188/271/4 187/270/4 156/226/4 
# 260 faces

