# 3ds Max Wavefront OBJ Exporter v0.97b - (c)2007 guruware
# File Created: 06.01.2021 14:41:41

mtllib Pista_aero.mtl

#
# object Ground
#

v  137.6902 0.0000 -982.9972
v  137.6902 0.0000 -119.5816
v  137.6902 8.7538 -119.5816
v  137.6902 8.7538 -982.9972
v  -138.5772 0.0000 114.2716
v  -1002.5771 0.0000 114.2716
v  -1002.5771 8.7538 114.2716
v  -138.5772 8.7538 114.2716
v  1000.3425 0.0000 114.2716
v  137.6902 0.0000 114.2716
v  137.6902 8.7538 114.2716
v  1000.3425 8.7538 114.2716
v  137.6902 0.0000 975.1165
v  137.6902 8.7538 975.1165
v  -1002.5771 0.0000 -119.5816
v  -138.5772 0.0000 -119.5816
v  -138.5772 8.7538 -119.5816
v  -1002.5771 8.7538 -119.5816
v  -138.5772 0.0000 975.1165
v  -138.5772 8.7538 975.1165
v  1000.3425 0.0000 -119.5816
v  1000.3425 8.7538 -119.5816
v  -138.5772 0.0000 -982.9973
v  -138.5772 8.7538 -982.9973
# 24 vertices

vn -1.0000 0.0000 -0.0000
vn 0.0000 0.0000 -1.0000
vn 0.0000 0.0000 1.0000
vn 1.0000 0.0000 -0.0000
vn 0.0000 1.0000 -0.0000
# 5 vertex normals

vt 0.5768 0.4676 0.0000
vt 0.5768 0.2558 0.0000
vt 0.4413 0.1985 0.0000
vt 0.0000 0.1985 0.0000
vt 1.0000 0.1985 0.0000
vt 0.5768 0.1985 0.0000
vt 0.5768 0.0000 0.0000
vt 0.0000 0.2558 0.0000
vt 0.4413 0.2558 0.0000
vt 0.4413 0.0000 0.0000
vt 1.0000 0.2558 0.0000
vt 0.4413 0.4676 0.0000
# 12 texture coords

o Ground
g Ground
usemtl Material__29
s off
f 1/1/1 2/2/1 3/2/1 
f 3/2/1 4/1/1 1/1/1 
f 5/3/2 6/4/2 7/4/2 
f 7/4/2 8/3/2 5/3/2 
f 9/5/2 10/6/2 11/6/2 
f 11/6/2 12/5/2 9/5/2 
f 10/6/1 13/7/1 14/7/1 
f 14/7/1 11/6/1 10/6/1 
f 15/8/3 16/9/3 17/9/3 
f 17/9/3 18/8/3 15/8/3 
f 19/10/4 5/3/4 8/3/4 
f 8/3/4 20/10/4 19/10/4 
f 2/2/3 21/11/3 22/11/3 
f 22/11/3 3/2/3 2/2/3 
f 13/7/5 10/6/5 5/3/5 
f 5/3/5 19/10/5 13/7/5 
f 21/11/5 2/2/5 10/6/5 
f 10/6/5 9/5/5 21/11/5 
f 2/2/5 16/9/5 5/3/5 
f 5/3/5 10/6/5 2/2/5 
f 16/9/5 15/8/5 6/4/5 
f 6/4/5 5/3/5 16/9/5 
f 2/2/5 1/1/5 23/12/5 
f 23/12/5 16/9/5 2/2/5 
f 16/9/4 23/12/4 24/12/4 
f 24/12/4 17/9/4 16/9/4 
# 26 faces

